<svg width="18" height="18" viewBox="0 0 18 18" fill="none" xmlns="http://www.w3.org/2000/svg">
<path d="M8.77083 0.724731C8.5885 0.72475 8.41365 0.796637 8.28472 0.924582C8.15579 1.05253 8.08335 1.22605 8.08333 1.40699V3.02204C7.05499 3.13684 6.25 3.9951 6.25 5.04573V15.5071C6.25 16.6356 7.17537 17.5539 8.3125 17.5539H15.1875C16.3246 17.5539 17.25 16.6356 17.25 15.5071V5.04573C17.25 3.9951 16.445 3.13684 15.4167 3.02204V1.40699C15.4166 1.22605 15.3442 1.05253 15.2153 0.924582C15.0864 0.796637 14.9115 0.72475 14.7292 0.724731H8.77083ZM2.80176 1.1698C2.61958 1.17263 2.44598 1.2471 2.31908 1.37685C2.19219 1.50661 2.12239 1.68104 2.125 1.86184V3.1242C1.32646 3.40674 0.75 4.15756 0.75 5.04573V15.5071C0.75 16.6356 1.67538 17.5539 2.8125 17.5539H3.27083C4.40796 17.5539 5.33333 16.6356 5.33333 15.5071V5.04573C5.33333 3.9951 4.52835 3.13684 3.5 3.02204V1.86184C3.50132 1.77052 3.48415 1.67987 3.44952 1.59526C3.41489 1.51065 3.36349 1.4338 3.29837 1.36926C3.23326 1.30472 3.15575 1.25382 3.07045 1.21955C2.98514 1.18529 2.89377 1.16837 2.80176 1.1698ZM9.45833 2.08926H14.0417V6.18284H9.45833V2.08926ZM9.22917 8.91189C9.60867 8.91189 9.91667 9.21754 9.91667 9.59415C9.91667 9.97076 9.60867 10.2764 9.22917 10.2764C8.84967 10.2764 8.54167 9.97076 8.54167 9.59415C8.54167 9.21754 8.84967 8.91189 9.22917 8.91189ZM11.75 8.91189C12.1295 8.91189 12.4375 9.21754 12.4375 9.59415C12.4375 9.97076 12.1295 10.2764 11.75 10.2764C11.3705 10.2764 11.0625 9.97076 11.0625 9.59415C11.0625 9.21754 11.3705 8.91189 11.75 8.91189ZM14.2708 8.91189C14.6503 8.91189 14.9583 9.21754 14.9583 9.59415C14.9583 9.97076 14.6503 10.2764 14.2708 10.2764C13.8913 10.2764 13.5833 9.97076 13.5833 9.59415C13.5833 9.21754 13.8913 8.91189 14.2708 8.91189ZM9.22917 11.1861C9.60867 11.1861 9.91667 11.4918 9.91667 11.8684C9.91667 12.245 9.60867 12.5506 9.22917 12.5506C8.84967 12.5506 8.54167 12.245 8.54167 11.8684C8.54167 11.4918 8.84967 11.1861 9.22917 11.1861ZM11.75 11.1861C12.1295 11.1861 12.4375 11.4918 12.4375 11.8684C12.4375 12.245 12.1295 12.5506 11.75 12.5506C11.3705 12.5506 11.0625 12.245 11.0625 11.8684C11.0625 11.4918 11.3705 11.1861 11.75 11.1861ZM14.2708 11.1861C14.6503 11.1861 14.9583 11.4918 14.9583 11.8684C14.9583 12.245 14.6503 12.5506 14.2708 12.5506C13.8913 12.5506 13.5833 12.245 13.5833 11.8684C13.5833 11.4918 13.8913 11.1861 14.2708 11.1861ZM9.22917 13.4603C9.60867 13.4603 9.91667 13.766 9.91667 14.1426C9.91667 14.5192 9.60867 14.8248 9.22917 14.8248C8.84967 14.8248 8.54167 14.5192 8.54167 14.1426C8.54167 13.766 8.84967 13.4603 9.22917 13.4603ZM11.75 13.4603C12.1295 13.4603 12.4375 13.766 12.4375 14.1426C12.4375 14.5192 12.1295 14.8248 11.75 14.8248C11.3705 14.8248 11.0625 14.5192 11.0625 14.1426C11.0625 13.766 11.3705 13.4603 11.75 13.4603ZM14.2708 13.4603C14.6503 13.4603 14.9583 13.766 14.9583 14.1426C14.9583 14.5192 14.6503 14.8248 14.2708 14.8248C13.8913 14.8248 13.5833 14.5192 13.5833 14.1426C13.5833 13.766 13.8913 13.4603 14.2708 13.4603Z" fill="#2F80ED"/>
</svg>
