<svg width="18" height="20" viewBox="0 0 18 20" fill="none" xmlns="http://www.w3.org/2000/svg">
<path d="M14.2631 0.826172C14.1263 0.826205 13.9926 0.867059 13.8791 0.943506C13.7656 1.01995 13.6776 1.12852 13.6261 1.25531C13.5747 1.3821 13.5623 1.52135 13.5904 1.65524C13.6186 1.78913 13.6861 1.91158 13.7842 2.00692L15.3606 3.58333H10.1453C10.0542 3.58205 9.96372 3.59888 9.87918 3.63285C9.79464 3.66682 9.71769 3.71726 9.65282 3.78122C9.58794 3.84519 9.53642 3.92142 9.50125 4.00547C9.46609 4.08952 9.44798 4.17972 9.44798 4.27083C9.44798 4.36194 9.46609 4.45215 9.50125 4.5362C9.53642 4.62025 9.58794 4.69648 9.65282 4.76044C9.71769 4.82441 9.79464 4.87485 9.87918 4.90882C9.96372 4.94279 10.0542 4.95962 10.1453 4.95833H15.3606L13.7842 6.53475C13.7182 6.5981 13.6655 6.67398 13.6292 6.75794C13.593 6.8419 13.5738 6.93226 13.5729 7.02373C13.5719 7.11519 13.5893 7.20592 13.6238 7.29061C13.6584 7.37529 13.7095 7.45222 13.7742 7.5169C13.8389 7.58158 13.9158 7.6327 14.0005 7.66728C14.0852 7.70185 14.1759 7.71918 14.2674 7.71825C14.3588 7.71732 14.4492 7.69815 14.5332 7.66186C14.6171 7.62557 14.693 7.5729 14.7564 7.50692L17.5064 4.75692C17.6352 4.62798 17.7076 4.45314 17.7076 4.27083C17.7076 4.08853 17.6352 3.91369 17.5064 3.78475L14.7564 1.03475C14.6923 0.968756 14.6156 0.916292 14.5309 0.880465C14.4462 0.844638 14.3551 0.826176 14.2631 0.826172ZM4.13949 0.838704C3.91064 0.820908 3.67517 0.84626 3.44394 0.920166L2.45745 1.23617C1.47891 1.54875 0.729151 2.38642 0.487151 3.43921C-0.0880577 5.94079 0.602042 8.98623 2.55592 12.5754C4.50842 16.1601 6.64785 18.3153 8.97527 19.0413C9.96115 19.3489 11.0274 19.0777 11.7736 18.3288L12.5229 17.5759C13.2223 16.8738 13.3239 15.7311 12.7601 14.9029L11.6304 13.2432C11.1455 12.531 10.2842 12.2286 9.49358 12.4922L7.77662 13.0651C7.54745 13.1416 7.2904 13.1014 7.10523 12.946C6.40628 12.3589 5.81326 11.6462 5.32651 10.8092C4.83884 9.9705 4.52417 9.1201 4.38209 8.25798C4.34496 8.03248 4.43102 7.80423 4.59693 7.64657L6.06951 6.24919C6.69376 5.65702 6.88367 4.70473 6.54037 3.89486L5.75261 2.03646C5.45561 1.3359 4.82605 0.892093 4.13949 0.838704Z" fill="#2F80ED"/>
</svg>
