<svg width="16" height="20" viewBox="0 0 16 20" fill="none" xmlns="http://www.w3.org/2000/svg">
<path d="M8.00065 0.833313C3.70423 0.833313 0.208984 4.32856 0.208984 8.62498C0.208984 10.4748 0.87311 12.2701 2.08494 13.6886C2.22336 13.8459 5.48898 17.5565 6.57982 18.5965C6.97811 18.9764 7.48915 19.1666 8.00065 19.1666C8.51215 19.1666 9.02319 18.9764 9.42194 18.5965C10.6902 17.3869 13.7871 13.8367 13.9228 13.6809C15.1282 12.2701 15.7923 10.4748 15.7923 8.62498C15.7923 4.32856 12.2971 0.833313 8.00065 0.833313ZM8.00065 10.9166C6.73519 10.9166 5.70898 9.89044 5.70898 8.62498C5.70898 7.35952 6.73519 6.33331 8.00065 6.33331C9.26611 6.33331 10.2923 7.35952 10.2923 8.62498C10.2923 9.89044 9.26611 10.9166 8.00065 10.9166Z" fill="#2F80ED"/>
</svg>
